<svg width="23" height="31" viewBox="0 0 23 31" fill="none" xmlns="http://www.w3.org/2000/svg">
<path d="M1.7041 21.1885V25.7783C1.7041 26.055 1.75456 26.304 1.85547 26.5254C1.95964 26.7435 2.0931 26.929 2.25586 27.082C2.42188 27.235 2.60742 27.3522 2.8125 27.4336C3.02083 27.515 3.23079 27.5557 3.44238 27.5557C3.66374 27.5557 3.88509 27.5182 4.10645 27.4434C4.33105 27.3685 4.53125 27.2578 4.70703 27.1113C4.88607 26.9648 5.03092 26.7826 5.1416 26.5645C5.25553 26.3431 5.3125 26.0876 5.3125 25.7979V21.1885H6.03516V25.749C6.03516 26.0127 5.99935 26.2568 5.92773 26.4814C5.85938 26.7028 5.76335 26.9046 5.63965 27.0869C5.51595 27.2692 5.37109 27.4303 5.20508 27.5703C5.03906 27.707 4.86003 27.8226 4.66797 27.917C4.47591 28.0114 4.27572 28.0814 4.06738 28.127C3.8623 28.1758 3.65723 28.2002 3.45215 28.2002C3.25684 28.2002 3.0599 28.1758 2.86133 28.127C2.66276 28.0814 2.47233 28.013 2.29004 27.9219C2.10775 27.8275 1.93685 27.7119 1.77734 27.5752C1.61784 27.4352 1.47949 27.2741 1.3623 27.0918C1.24512 26.9095 1.15234 26.7044 1.08398 26.4766C1.01562 26.2487 0.981445 25.9997 0.981445 25.7295V21.1885H1.7041ZM7.74414 23.0293H8.4668V23.7617C8.7207 23.4688 8.99414 23.2572 9.28711 23.127C9.58008 22.9967 9.88118 22.9316 10.1904 22.9316C10.4215 22.9316 10.6283 22.9658 10.8105 23.0342C10.9928 23.1025 11.1475 23.2002 11.2744 23.3271C11.4014 23.4541 11.4974 23.6087 11.5625 23.791C11.6309 23.9701 11.665 24.1719 11.665 24.3965V28H10.9424V24.4893C10.9424 24.32 10.9212 24.1784 10.8789 24.0645C10.8398 23.9473 10.7812 23.8529 10.7031 23.7812C10.6283 23.7096 10.5355 23.6576 10.4248 23.625C10.3141 23.5924 10.1904 23.5762 10.0537 23.5762C9.83236 23.5762 9.62565 23.6152 9.43359 23.6934C9.24154 23.7715 9.07389 23.8757 8.93066 24.0059C8.78743 24.1328 8.6735 24.2809 8.58887 24.4502C8.50749 24.6162 8.4668 24.7887 8.4668 24.9678V28H7.74414V23.0293ZM13.374 23.0293V21.9111C13.374 21.7744 13.4049 21.6475 13.4668 21.5303C13.5286 21.4131 13.6133 21.3122 13.7207 21.2275C13.8281 21.1396 13.9551 21.0729 14.1016 21.0273C14.2513 20.9785 14.4124 20.9541 14.585 20.9541C14.6989 20.9541 14.821 20.9688 14.9512 20.998C15.0846 21.0241 15.2246 21.0713 15.3711 21.1396V21.7354C15.2669 21.6898 15.1546 21.6572 15.0342 21.6377C14.917 21.6149 14.8112 21.6035 14.7168 21.6035C14.6322 21.6035 14.5508 21.6133 14.4727 21.6328C14.3978 21.6523 14.3327 21.6849 14.2773 21.7305C14.222 21.7728 14.1781 21.8314 14.1455 21.9062C14.113 21.9779 14.0967 22.0674 14.0967 22.1748V23.0293H14.9609V23.6641H14.0967V28H13.374V23.6641H12.6416V23.0293H13.374ZM16.665 21.1543V21.999H15.9424V21.1543H16.665ZM16.665 23.0293V28H15.9424V23.0293H16.665ZM18.1348 23.0293H18.8574V23.7617C19.1113 23.4688 19.3848 23.2572 19.6777 23.127C19.9707 22.9967 20.2718 22.9316 20.5811 22.9316C20.8122 22.9316 21.0189 22.9658 21.2012 23.0342C21.3835 23.1025 21.5381 23.2002 21.665 23.3271C21.792 23.4541 21.888 23.6087 21.9531 23.791C22.0215 23.9701 22.0557 24.1719 22.0557 24.3965V28H21.333V24.4893C21.333 24.32 21.3118 24.1784 21.2695 24.0645C21.2305 23.9473 21.1719 23.8529 21.0938 23.7812C21.0189 23.7096 20.9261 23.6576 20.8154 23.625C20.7048 23.5924 20.5811 23.5762 20.4443 23.5762C20.223 23.5762 20.0163 23.6152 19.8242 23.6934C19.6322 23.7715 19.4645 23.8757 19.3213 24.0059C19.1781 24.1328 19.0641 24.2809 18.9795 24.4502C18.8981 24.6162 18.8574 24.7887 18.8574 24.9678V28H18.1348V23.0293Z" fill="white" fill-opacity="0.6"/>
<g clip-path="url(#clip0_12_119)">
<path d="M13 10L9 6M13 6L9 10" stroke="white" stroke-opacity="0.6" stroke-width="1.5" stroke-linecap="round"/>
<path d="M11 14.6666C14.6819 14.6666 17.6666 11.6819 17.6666 7.99998C17.6666 4.31808 14.6819 1.33331 11 1.33331C7.31808 1.33331 4.33331 4.31808 4.33331 7.99998C4.33331 11.6819 7.31808 14.6666 11 14.6666Z" stroke="white" stroke-opacity="0.6" stroke-width="1.5"/>
</g>
<defs>
<clipPath id="clip0_12_119">
<rect width="16" height="16" fill="white" transform="translate(3)"/>
</clipPath>
</defs>
</svg>
