<svg width="23" height="31" viewBox="0 0 23 31" fill="none" xmlns="http://www.w3.org/2000/svg">
<path opacity="0.6" d="M0.981445 21.1885H3.50586C3.80534 21.1885 4.08529 21.2292 4.3457 21.3105C4.60938 21.3919 4.85026 21.5075 5.06836 21.6572C5.28646 21.8037 5.48014 21.9811 5.64941 22.1895C5.81868 22.3978 5.96191 22.6273 6.0791 22.8779C6.19629 23.1286 6.28581 23.3988 6.34766 23.6885C6.40951 23.9749 6.44043 24.2728 6.44043 24.582C6.44043 25.0671 6.36882 25.5179 6.22559 25.9346C6.08236 26.348 5.88053 26.7093 5.62012 27.0186C5.36296 27.3245 5.05371 27.5654 4.69238 27.7412C4.33431 27.9137 3.9388 28 3.50586 28H0.981445V21.1885ZM1.7041 27.3408H3.21777C3.57585 27.3408 3.90788 27.279 4.21387 27.1553C4.51986 27.0316 4.78353 26.8525 5.00488 26.6182C5.22949 26.3838 5.40365 26.0973 5.52734 25.7588C5.6543 25.417 5.71777 25.0296 5.71777 24.5967C5.71777 24.1247 5.6543 23.7161 5.52734 23.3711C5.40039 23.0228 5.22461 22.7363 5 22.5117C4.77539 22.2871 4.51009 22.1211 4.2041 22.0137C3.90137 21.903 3.57259 21.8477 3.21777 21.8477H1.7041V27.3408ZM7.42188 25.5293C7.42188 25.1777 7.46908 24.8457 7.56348 24.5332C7.66113 24.2174 7.80273 23.9424 7.98828 23.708C8.17708 23.4704 8.4082 23.2816 8.68164 23.1416C8.95833 23.0016 9.27409 22.9316 9.62891 22.9316C9.98698 22.9316 10.3044 23.0016 10.5811 23.1416C10.8577 23.2816 11.0905 23.4704 11.2793 23.708C11.4714 23.9424 11.6162 24.2174 11.7139 24.5332C11.8148 24.8457 11.8652 25.1777 11.8652 25.5293C11.8652 25.8776 11.8148 26.208 11.7139 26.5205C11.6162 26.8298 11.4714 27.1016 11.2793 27.3359C11.0905 27.5703 10.8577 27.7559 10.5811 27.8926C10.3044 28.0293 9.98698 28.0977 9.62891 28.0977C9.27409 28.0977 8.95833 28.0293 8.68164 27.8926C8.4082 27.7559 8.17708 27.5703 7.98828 27.3359C7.80273 27.1016 7.66113 26.8298 7.56348 26.5205C7.46908 26.208 7.42188 25.8776 7.42188 25.5293ZM8.14453 25.5293C8.14453 25.7897 8.17871 26.0371 8.24707 26.2715C8.31543 26.5026 8.41309 26.7077 8.54004 26.8867C8.66699 27.0625 8.82161 27.2025 9.00391 27.3066C9.18945 27.4108 9.39779 27.4629 9.62891 27.4629C9.86003 27.4629 10.0684 27.4108 10.2539 27.3066C10.4427 27.2025 10.6022 27.0625 10.7324 26.8867C10.8659 26.7077 10.9668 26.5026 11.0352 26.2715C11.1068 26.0371 11.1426 25.7897 11.1426 25.5293C11.1426 25.2689 11.1068 25.0215 11.0352 24.7871C10.9668 24.5495 10.8659 24.3411 10.7324 24.1621C10.6022 23.9831 10.4427 23.8415 10.2539 23.7373C10.0684 23.6299 9.86003 23.5762 9.62891 23.5762C9.39779 23.5762 9.18945 23.6299 9.00391 23.7373C8.82161 23.8415 8.66699 23.9831 8.54004 24.1621C8.41309 24.3411 8.31543 24.5495 8.24707 24.7871C8.17871 25.0215 8.14453 25.2689 8.14453 25.5293ZM12.998 23.0293H13.7207V23.7617C13.9746 23.4688 14.248 23.2572 14.541 23.127C14.834 22.9967 15.1351 22.9316 15.4443 22.9316C15.6755 22.9316 15.8822 22.9658 16.0645 23.0342C16.2467 23.1025 16.4014 23.2002 16.5283 23.3271C16.6553 23.4541 16.7513 23.6087 16.8164 23.791C16.8848 23.9701 16.9189 24.1719 16.9189 24.3965V28H16.1963V24.4893C16.1963 24.32 16.1751 24.1784 16.1328 24.0645C16.0938 23.9473 16.0352 23.8529 15.957 23.7812C15.8822 23.7096 15.7894 23.6576 15.6787 23.625C15.568 23.5924 15.4443 23.5762 15.3076 23.5762C15.0863 23.5762 14.8796 23.6152 14.6875 23.6934C14.4954 23.7715 14.3278 23.8757 14.1846 24.0059C14.0413 24.1328 13.9274 24.2809 13.8428 24.4502C13.7614 24.6162 13.7207 24.7887 13.7207 24.9678V28H12.998V23.0293ZM18.8135 25.6367C18.8167 25.8646 18.8558 26.0892 18.9307 26.3105C19.0088 26.5286 19.113 26.724 19.2432 26.8965C19.3766 27.0658 19.5329 27.2041 19.7119 27.3115C19.891 27.4157 20.0846 27.4678 20.293 27.4678C20.9961 27.4678 21.4632 27.1406 21.6943 26.4863H22.3535C22.2982 26.7402 22.2054 26.9681 22.0752 27.1699C21.945 27.3685 21.7871 27.5378 21.6016 27.6777C21.416 27.8145 21.2109 27.9186 20.9863 27.9902C20.7617 28.0618 20.5306 28.0977 20.293 28.0977C19.9512 28.0977 19.6419 28.0244 19.3652 27.8779C19.0918 27.7314 18.8574 27.5361 18.6621 27.292C18.4668 27.0479 18.3171 26.7663 18.2129 26.4473C18.1087 26.125 18.0566 25.7881 18.0566 25.4365C18.0566 25.1077 18.1087 24.792 18.2129 24.4893C18.3171 24.1865 18.4652 23.9196 18.6572 23.6885C18.8525 23.4574 19.0869 23.2734 19.3604 23.1367C19.637 23 19.9463 22.9316 20.2881 22.9316C20.6201 22.9316 20.918 22.9935 21.1816 23.1172C21.4486 23.2409 21.6764 23.4118 21.8652 23.6299C22.054 23.848 22.1989 24.1035 22.2998 24.3965C22.4007 24.6895 22.4512 25.0068 22.4512 25.3486V25.6367H18.8135ZM21.7041 25.0801C21.6976 24.8717 21.6585 24.6764 21.5869 24.4941C21.5186 24.3118 21.4209 24.1523 21.2939 24.0156C21.1702 23.8789 21.0189 23.7715 20.8398 23.6934C20.6608 23.6152 20.4606 23.5762 20.2393 23.5762C20.0374 23.5762 19.8503 23.6185 19.6777 23.7031C19.5052 23.7878 19.3555 23.9001 19.2285 24.04C19.1016 24.18 19.0007 24.3411 18.9258 24.5234C18.8542 24.7025 18.8167 24.888 18.8135 25.0801H21.7041Z" fill="white"/>
<g clip-path="url(#clip0_12_118)">
<path d="M9.33331 8.33331L11.3333 10.3333L14.6666 6.33331" stroke="white" stroke-opacity="0.6" stroke-width="1.5" stroke-linecap="round" stroke-linejoin="round"/>
<path d="M12 14.6666C15.6819 14.6666 18.6666 11.6819 18.6666 7.99998C18.6666 4.31808 15.6819 1.33331 12 1.33331C8.31808 1.33331 5.33331 4.31808 5.33331 7.99998C5.33331 11.6819 8.31808 14.6666 12 14.6666Z" stroke="white" stroke-opacity="0.6" stroke-width="1.5"/>
</g>
<defs>
<clipPath id="clip0_12_118">
<rect width="16" height="16" fill="white" transform="translate(4)"/>
</clipPath>
</defs>
</svg>
