<svg width="25" height="25" viewBox="0 0 25 25" fill="none" xmlns="http://www.w3.org/2000/svg">
<path d="M20.3125 21.875H15.625C15.2106 21.875 14.8132 21.7104 14.5201 21.4173C14.2271 21.1243 14.0625 20.7269 14.0625 20.3125V15.625H10.9375V20.3125C10.9375 20.7269 10.7729 21.1243 10.4799 21.4173C10.1868 21.7104 9.7894 21.875 9.375 21.875H4.6875C4.2731 21.875 3.87567 21.7104 3.58265 21.4173C3.28962 21.1243 3.125 20.7269 3.125 20.3125V11.2793C3.12507 11.0625 3.17025 10.8481 3.25768 10.6497C3.3451 10.4513 3.47286 10.2733 3.63281 10.1269L11.4453 3.02734C11.7334 2.76382 12.1096 2.61768 12.5 2.61768C12.8904 2.61768 13.2666 2.76382 13.5547 3.02734L21.3672 10.1269C21.5271 10.2733 21.6549 10.4513 21.7423 10.6497C21.8297 10.8481 21.8749 11.0625 21.875 11.2793V20.3125C21.875 20.7269 21.7104 21.1243 21.4174 21.4173C21.1243 21.7104 20.7269 21.875 20.3125 21.875ZM10.9375 14.0625H14.0625C14.4769 14.0625 14.8743 14.2271 15.1674 14.5201C15.4604 14.8132 15.625 15.2106 15.625 15.625V20.3125H20.3125V11.2793L12.5 4.17968L4.6875 11.2793V20.3125H9.375V15.625C9.375 15.2106 9.53962 14.8132 9.83265 14.5201C10.1257 14.2271 10.5231 14.0625 10.9375 14.0625Z" fill="white"/>
</svg>
