<svg width="140" height="210" viewBox="0 0 140 210" fill="none" xmlns="http://www.w3.org/2000/svg">
<g filter="url(#filter0_d_12_136)">
<rect x="50" y="46" width="40" height="110" rx="19" fill="#FFC72C"/>
</g>
<circle cx="70" cy="66" r="15" fill="white"/>
<g clip-path="url(#clip0_12_136)">
<path d="M70 66C71.5781 66 72.8571 64.657 72.8571 63C72.8571 61.343 71.5781 60 70 60C68.4219 60 67.1429 61.343 67.1429 63C67.1429 64.657 68.4219 66 70 66ZM72 66.75H71.6272C71.1317 66.9891 70.5804 67.125 70 67.125C69.4196 67.125 68.8705 66.9891 68.3728 66.75H68C66.3437 66.75 65 68.1609 65 69.9V70.875C65 71.4961 65.4799 72 66.0714 72H73.9286C74.5201 72 75 71.4961 75 70.875V69.9C75 68.1609 73.6563 66.75 72 66.75Z" fill="#FFC72C"/>
</g>
<circle cx="70" cy="101" r="15" fill="white"/>
<g clip-path="url(#clip1_12_136)">
<path d="M70 101C71.5781 101 72.8571 99.657 72.8571 98C72.8571 96.343 71.5781 95 70 95C68.4219 95 67.1429 96.343 67.1429 98C67.1429 99.657 68.4219 101 70 101ZM72 101.75H71.6272C71.1317 101.989 70.5804 102.125 70 102.125C69.4196 102.125 68.8705 101.989 68.3728 101.75H68C66.3437 101.75 65 103.161 65 104.9V105.875C65 106.496 65.4799 107 66.0714 107H73.9286C74.5201 107 75 106.496 75 105.875V104.9C75 103.161 73.6563 101.75 72 101.75Z" fill="#FFC72C"/>
</g>
<circle cx="70" cy="136" r="15" fill="white"/>
<g clip-path="url(#clip2_12_136)">
<path d="M70 136C71.5781 136 72.8571 134.657 72.8571 133C72.8571 131.343 71.5781 130 70 130C68.4219 130 67.1429 131.343 67.1429 133C67.1429 134.657 68.4219 136 70 136ZM72 136.75H71.6272C71.1317 136.989 70.5804 137.125 70 137.125C69.4196 137.125 68.8705 136.989 68.3728 136.75H68C66.3437 136.75 65 138.161 65 139.9V140.875C65 141.496 65.4799 142 66.0714 142H73.9286C74.5201 142 75 141.496 75 140.875V139.9C75 138.161 73.6563 136.75 72 136.75Z" fill="#FFC72C"/>
</g>
<defs>
<filter id="filter0_d_12_136" x="0" y="0" width="140" height="210" filterUnits="userSpaceOnUse" color-interpolation-filters="sRGB">
<feFlood flood-opacity="0" result="BackgroundImageFix"/>
<feColorMatrix in="SourceAlpha" type="matrix" values="0 0 0 0 0 0 0 0 0 0 0 0 0 0 0 0 0 0 127 0" result="hardAlpha"/>
<feOffset dy="4"/>
<feGaussianBlur stdDeviation="25"/>
<feComposite in2="hardAlpha" operator="out"/>
<feColorMatrix type="matrix" values="0 0 0 0 0 0 0 0 0 0 0 0 0 0 0 0 0 0 0.1 0"/>
<feBlend mode="normal" in2="BackgroundImageFix" result="effect1_dropShadow_12_136"/>
<feBlend mode="normal" in="SourceGraphic" in2="effect1_dropShadow_12_136" result="shape"/>
</filter>
<clipPath id="clip0_12_136">
<rect width="10" height="12" fill="white" transform="translate(65 60)"/>
</clipPath>
<clipPath id="clip1_12_136">
<rect width="10" height="12" fill="white" transform="translate(65 95)"/>
</clipPath>
<clipPath id="clip2_12_136">
<rect width="10" height="12" fill="white" transform="translate(65 130)"/>
</clipPath>
</defs>
</svg>
