<svg width="30" height="30" viewBox="0 0 30 30" fill="none" xmlns="http://www.w3.org/2000/svg">
<circle cx="15" cy="15" r="15" fill="white"/>
<g clip-path="url(#clip0_12_131)">
<path d="M15 15C16.5781 15 17.8571 13.657 17.8571 12C17.8571 10.343 16.5781 9 15 9C13.4219 9 12.1429 10.343 12.1429 12C12.1429 13.657 13.4219 15 15 15ZM17 15.75H16.6272C16.1317 15.9891 15.5804 16.125 15 16.125C14.4196 16.125 13.8705 15.9891 13.3728 15.75H13C11.3437 15.75 10 17.1609 10 18.9V19.875C10 20.4961 10.4799 21 11.0714 21H18.9286C19.5201 21 20 20.4961 20 19.875V18.9C20 17.1609 18.6563 15.75 17 15.75Z" fill="#FFC72C"/>
</g>
<defs>
<clipPath id="clip0_12_131">
<rect width="10" height="12" fill="grey" transform="translate(10 9)"/>
</clipPath>
</defs>
</svg>
